<?xml version="1.0" encoding="iso-8859-1"?>
<!-- Uploaded to: SVG Repo, www.svgrepo.com, Generator: SVG Repo Mixer Tools -->
<!DOCTYPE svg PUBLIC "-//W3C//DTD SVG 1.1//EN" "http://www.w3.org/Graphics/SVG/1.1/DTD/svg11.dtd">
<svg fill="#000000" height="800px" width="800px" version="1.1" id="Capa_1" xmlns="http://www.w3.org/2000/svg" xmlns:xlink="http://www.w3.org/1999/xlink" 
	 viewBox="0 0 297 297" xml:space="preserve">
<g>
	<path d="M123.985,188.047c7.391-7.755,13.774-14.454,17.417-21.184c6.876-12.704,0.947-21.22-3.2-25.164
		c-5.228-4.975-12.234-7.603-20.26-7.603c-13.084,0-27.553,7.062-38.705,18.888c-18.756,19.888-22.28,46.09-8.022,59.652
		c3.961,3.77,8.423,5.68,13.258,5.68c11.188,0,20.432-9.905,32.136-22.445L123.985,188.047z M105.179,185.207
		c-7.646,8.193-16.312,17.48-20.707,17.48c-0.257,0-1.039,0-2.483-1.375c-4.12-3.918-4.778-10.946-2.554-18.612
		c0.347,0.367,0.706,0.734,1.088,1.097c1.514,1.439,3.451,2.153,5.387,2.153c2.065,0,4.127-0.814,5.663-2.428
		c2.976-3.128,2.852-8.075-0.275-11.05c-1.014-0.965-4.078-3.89-0.222-8.318c4.146-4.065,7.183-1.183,8.185-0.229
		c1.513,1.438,3.45,2.153,5.386,2.153c2.064,0,4.127-0.814,5.663-2.428c2.975-3.128,2.853-8.074-0.274-11.05
		c-0.429-0.408-0.857-0.782-1.286-1.142c3.158-1.119,6.273-1.732,9.193-1.732c3.995,0,7.188,1.109,9.486,3.297
		c1.467,1.395,2.436,2.318,0.228,6.399c-2.649,4.896-8.642,11.185-14.986,17.842L105.179,185.207z"/>
	<path d="M140.675,194.284c0,7.04,2.741,13.657,7.719,18.634c4.977,4.979,11.595,7.719,18.635,7.719
		c7.038-0.001,13.656-2.741,18.634-7.719l52.429-52.43c4.977-4.979,7.718-11.596,7.718-18.634c0-7.039-2.741-13.655-7.718-18.634
		c-4.978-4.978-11.596-7.718-18.634-7.718c-7.002,0-13.585,2.712-18.554,7.639c-0.944,0.903-3.761,3.858-5.102,8.097
		c-3.21,1.284-6.217,3.222-8.813,5.816c-3.341,3.34-5.688,7.479-6.86,11.977c-4.386,1.14-8.534,3.417-11.964,6.847
		c-3.524,3.525-5.944,7.936-7.044,12.723c-4.782,1.089-9.173,3.495-12.727,7.049C143.418,180.627,140.676,187.246,140.675,194.284z
		 M159.448,186.703c2.025-2.025,4.717-3.141,7.581-3.141c2.863,0,5.556,1.115,7.58,3.141c3.053,3.052,8,3.052,11.054,0
		c3.052-3.053,3.052-8,0-11.053c-2.49-2.489-5.39-4.419-8.547-5.727c0.523-1.099,1.226-2.114,2.104-2.992
		c4.178-4.181,10.982-4.181,15.161,0c3.053,3.051,8,3.051,11.053,0c3.052-3.053,3.052-8,0-11.053
		c-2.619-2.619-5.66-4.566-8.903-5.851c0.429-0.689,0.929-1.337,1.513-1.921c4.179-4.18,10.982-4.18,15.161,0
		c3.053,3.052,8.001,3.052,11.054,0c3.052-3.053,3.052-8,0-11.053c-2.359-2.358-5.06-4.169-7.942-5.444
		c3.67-1.119,7.826-0.235,10.723,2.663c4.181,4.18,4.181,10.982,0,15.162l-52.429,52.43c-2.024,2.025-4.718,3.141-7.581,3.141
		c-2.864,0-5.557-1.115-7.581-3.141C155.266,197.686,155.266,190.884,159.448,186.703z"/>
	<path d="M295.691,82.6l-34.413-69.189c-1.651-3.319-5.04-5.419-8.748-5.419H44.452c-3.707,0-7.096,2.1-8.746,5.419L1.022,83.139
		c-1.506,3.028-1.339,6.62,0.441,9.494c1.781,2.876,4.923,4.625,8.305,4.625h7.574v181.98c0,5.395,4.374,9.77,9.77,9.77h242.76
		c5.395,0,9.768-4.375,9.768-9.77V97.259h7.571c0.007,0.001,0.015,0.001,0.019,0c5.397,0,9.77-4.374,9.77-9.769
		C297,85.709,296.524,84.038,295.691,82.6z M140.675,27.531v50.189H93.646l12.548-50.189H140.675z M190.787,27.531l12.548,50.189
		h-47.028V27.531H190.787z M271.442,77.721h-51.997l-12.547-50.189h39.58L271.442,77.721z M50.504,27.531h39.579L77.535,77.721
		H25.539L50.504,27.531z M36.881,269.469v-14.485h223.222v14.485H36.881z M260.102,235.445H36.881V97.259h223.222V235.445z"/>
</g>
</svg>